<svg id="Layer_1" xmlns="http://www.w3.org/2000/svg" viewBox="0 0 172.4 141.5"><style>.st0{opacity:0.3;} .st1{fill:none;stroke:#0069FF;stroke-miterlimit:10;} .st2{fill:url(#SVGID_1_);} .st3{fill:url(#SVGID_2_);} .st4{fill:url(#SVGID_3_);} .st5{fill:none;stroke:#0069FF;stroke-width:2.5;stroke-miterlimit:10;} .st6{enable-background:new ;} .st7{fill:#FFFFFF;} .st8{fill:none;stroke:#0069FF;stroke-width:1.5;stroke-miterlimit:10;} .st9{fill:none;stroke:url(#SVGID_4_);stroke-width:1.5;stroke-miterlimit:10;} .st10{fill:none;stroke:#0069FF;stroke-width:2;stroke-linecap:round;stroke-miterlimit:10;stroke-dasharray:0,4;} .st11{fill:none;stroke:url(#SVGID_5_);stroke-width:1.5;stroke-miterlimit:10;} .st12{fill:none;stroke:url(#SVGID_6_);stroke-width:1.5;stroke-miterlimit:10;} .st13{fill:none;stroke:url(#SVGID_7_);stroke-width:1.5;stroke-miterlimit:10;} .st14{fill:none;stroke:url(#SVGID_8_);stroke-width:1.5;stroke-miterlimit:10;} .st15{fill:url(#SVGID_9_);}</style><g class="st0"><path class="st1" d="M60.3 46V7.4M29 64.7l31.3-19.2L91.8 65"/></g><linearGradient id="SVGID_1_" gradientUnits="userSpaceOnUse" x1="22.179" y1="122.237" x2="22.179" y2="159.571" gradientTransform="matrix(1 0 0 -1 0 249.46)"><stop offset="0" stop-color="#0069FF" stop-opacity=".7"/><stop offset="1" stop-color="#0069FF" stop-opacity="0"/></linearGradient><path class="st2" d="M22.1 89.9l16.3 9.8v17.6l-16.3 9.9L6 117.3V99.7z"/><linearGradient id="SVGID_2_" gradientUnits="userSpaceOnUse" x1="91.321" y1="118.637" x2="91.321" y2="173.608" gradientTransform="matrix(1 0 0 -1 0 249.46)"><stop offset="0" stop-color="#0069FF" stop-opacity=".7"/><stop offset="1" stop-color="#0069FF" stop-opacity="0"/></linearGradient><path class="st3" d="M91.3 75.9l23.9 14.6v25.8l-23.9 14.5-23.8-14.5V90.5z"/><linearGradient id="SVGID_3_" gradientUnits="userSpaceOnUse" x1="145.036" y1="190.751" x2="145.036" y2="238.357" gradientTransform="matrix(1 0 0 -1 0 249.46)"><stop offset="0" stop-color="#0069FF" stop-opacity=".7"/><stop offset="1" stop-color="#0069FF" stop-opacity="0"/></linearGradient><path class="st4" d="M145.1 11.2l20.6 12.5v22.4l-20.6 12.6-20.7-12.6V23.7z"/><path class="st5" d="M91.3 26.1v38.3L59.9 83.5l-31-19.1V26.1l31-19.2z"/><path class="st6 st7" d="M75.2 48.2c0 8.5-6.9 15.3-15.3 15.3s-15.3-6.9-15.3-15.3c0-10.1 15.3-22.7 15.3-22.7s15.3 13.1 15.3 22.7z"/><g class="st0"><path class="st1" d="M91.4 103.2V64.8M60.1 121.7l31.2-19.2 31.2 19.1"/></g><path class="st8" d="M91.4 102.6v38.3M122.7 84l-31.2 19.2-31.2-19"/><path class="st8" d="M91.2 64.2l31.3 19v38.4l-31.3 19.1-31.1-19.1V83.4"/><g class="st0"><path class="st1" d="M144.4 34.3V1.1M117.5 50.4l26.9-16.6 27.2 16.9"/></g><linearGradient id="SVGID_4_" gradientUnits="userSpaceOnUse" x1="119.058" y1="195.44" x2="170.1" y2="235.318" gradientTransform="matrix(1 0 0 -1 0 249.46)"><stop offset="0" stop-color="#0069FF"/><stop offset="1" stop-color="#00D688"/></linearGradient><path class="st9" d="M171.6 17.5v33.2l-27.1 16.5-27-16.5V17.5l27-16.6z"/><g class="st0"><path class="st1" d="M22 108.1V82.3M.9 121.1l21.1-13 21.2 13"/></g><path class="st10" d="M110.8 21.5l-13.5 7.6M111.4 53.5l-11.9 7.6M137.8 70.9l-12.5 8M53.4 114.1l-6 3.8M53.1 89l-6.5 3.8M31.7 76.4l-7.3 4"/><path class="st8" d="M144.6 34.4v33.1M144.6 34.8l-27.1-16.9"/><linearGradient id="SVGID_5_" gradientUnits="userSpaceOnUse" x1="144.292" y1="222.923" x2="172.049" y2="222.923" gradientTransform="matrix(1 0 0 -1 0 249.46)"><stop offset="0" stop-color="#0069FF"/><stop offset="1" stop-color="#00D688"/></linearGradient><path class="st11" d="M171.6 18.3l-27 16.5"/><g><linearGradient id="SVGID_6_" gradientUnits="userSpaceOnUse" x1="22.007" y1="115.153" x2="22.007" y2="141.01" gradientTransform="matrix(1 0 0 -1 0 249.46)"><stop offset="0" stop-color="#00D688"/><stop offset="1" stop-color="#0069FF"/></linearGradient><path class="st12" d="M22 108.4v25.9"/><linearGradient id="SVGID_7_" gradientUnits="userSpaceOnUse" x1=".471" y1="147.551" x2="22.401" y2="147.551" gradientTransform="matrix(1 0 0 -1 0 249.46)"><stop offset="0" stop-color="#00D688"/><stop offset="1" stop-color="#0069FF"/></linearGradient><path class="st13" d="M22 108.4L.9 95.4"/><path class="st8" d="M43.2 95.4l-21.2 13"/></g><g><linearGradient id="SVGID_8_" gradientUnits="userSpaceOnUse" x1="1.889" y1="125.628" x2="42.356" y2="157.245" gradientTransform="matrix(1 0 0 -1 0 249.46)"><stop offset="0" stop-color="#00D688"/><stop offset="1" stop-color="#0069FF"/></linearGradient><path class="st14" d="M43.5 95.1V121L22 134 .8 121V95.1L22 82z"/></g><g class="st6"><linearGradient id="SVGID_9_" gradientUnits="userSpaceOnUse" x1="47.298" y1="1100.828" x2="74.837" y2="1113.67" gradientTransform="translate(0 -1061.4)"><stop offset="0" stop-color="#0069FF"/><stop offset="1" stop-color="#0069FF" stop-opacity=".1"/></linearGradient><path class="st15" d="M75.2 48.2c0 8.5-6.9 15.3-15.3 15.3s-15.3-6.9-15.3-15.3c0-10.1 15.3-22.7 15.3-22.7s15.3 13.1 15.3 22.7z"/></g></svg>