<svg id="Layer_1" xmlns="http://www.w3.org/2000/svg" viewBox="0 0 735.7 402"> <defs><linearGradient id="map-gradient" x1="0" x2="0" y1="0" y2="1"><stop offset="0%" stop-color="#0072FF" stop-opacity="0.15"/><stop offset="100%" stop-color="#0072FF" stop-opacity="0.2"/></linearGradient></defs> <style>.st0{fill:url(#map-gradient)}</style><g class="st0"><path d="M562 262.8l-6-6.4v-5.2l-9.3-9.2h-3.9l-.1 5.6 9.3 9.4v5.2l7.1 7 2.9-2.9zM571.9 249.3l-4.9.3v5.4l3 2.6v5l3.8 3.4h5.6l6.6-6.5v-6.7l1.5-1.6-3.5-3.4V243h3.9l1.9-1.8-5.6-5.3zM585.4 277h8.9l2.8-3h-14.9l-3.4-3h-11.3l-2.8-1.8-2.8 3 2.7 2.8h11.8l2.5 2zM643.5 268l-8.4-8h-4.7l-3.2-3.1-4.2 3.9V256h-9v3h5v2.6l-3.5 3.4h5.9l6.5 6.2-3.1 2.8h7.2v3h6v-4h4.9l5.6 6h6.7l-8.2-8.1V268zM320 108v4.3l2.1 2.7H320v3h4.1l3.9-4.4V106h-3.9l-2.5 2zM331 108h2.6l2.1 1.9-2.2 2.1H332v5h2.9l-5.5 6h1.6l2.1-2h9.9v-3l2-1.9V114h-3v-3.4l-6.7-6.9-.6-.8 2.3-2.2V98h-3v-1.6l3-2.8V92h-2.9l-1.9 2h-1.5l-.1 3.8-2.2 2.2 2.6 2.5zM260.2 265H251v-7h-6.9l-4.1-4.3v-9l-3.7-3.7h-12.2l-4.7-4.4-5.9-5.6h-9l-3.2-3H198v5h-3v-6.8l-2.2 2.8h-3.4l-4.4 5v-1h-8.8l-4.2-3.8V216h-6v-11h-3.9l-6 6h-7.6l-6.5-6.4v-17.9l5.3-6.7h5.1l3.4 3h6l-3-3h9.6l3.6 4.3v3.7l4.4 4h3.6v-5.9l-2-4.8v-4.7l10-9.7v-3.6l-2-2v-2.6l2-2.2v4.5h2v-5.1l1.7-1.8 3-3.1 3.3-3.5v-4.3l3.2-3.2h4.8v-3h8v-3.7l-2-2.6V125h-6.1l-8.9 8.1v-2.8l9.3-9.3h13.6l3-3h5.1v-4.5l-2-2.5v-5h-9v-5.3l-5-4.7v-4.5l-6.7 6.9-4.3-4.5V89h-4.2l-4.1-4H181v5.9l3.3 3.2-4.2 4.2 5.5 5.4-5.6 5.5v3.4l3.7 3.6-3.5 3.5-5.2-5.1V109h-7.4l-8.8-8H153v-4h-4v-9l4.3-4.2L164 73.3v-4.6l-4-3.9 2.2-2.3-1.9-1.8-3 3-5-4.9 2.6-2.6-4.7-4.6-4.9 4.8 2.5 2.4-6.2 6.2h-12.9l-3.2-3H120v8l-6-5.7V67h-7v-6H88.1l-5.2-5h-3.6l3.3 3h-3.2l-2.3-2h-9.5L64 60.7V65h-4.3l-8.3-8H27.3l-3.4-4H11.3l-6.5 7H1v2.7l8 7.9v4L4.8 71H2.7L0 73.3V78h10v5H4.2L0 87.1V89h4v5h6v6.9l2.7-2.9h7.6l-5.8 6h-4.3l-7.8 8h4.1l5.5-6h4.3l8.7-8.8v-3.6l4-3.7 3-2.8v2.4l-3 3.2V96l1.2 1.2 3.9-4.2H40v-1h-3v-3h3.6l2.9 3h13.2l5.6 6H67v10h2.8L80 118.2v3.8h5.4l6.6 6.3v3.9l-1.9-2.2H88v27l4 3.7v4.9l6.3 6.4h3.7v7.9l4 4.4v6.7h3.8l5.7 5h3.4l-5.4-5.4-1.5-1.5v-4.3l-5.5-4.8h1.9l9.6 8.8v4l9 8.9v5.5l9.7 9.8h12.6l8.3 8h5.3l3.1 3.3v4.7h3.5l3.5 3h12v10.8L175 257v11.7l15 15.2v9.9l7 6.3v41l-4 3.1V362l-3 3.2v4.8h3v-5h1v8.4l-4 4v18.4l6.7 6.2h11.4l-6.1-6.2v-5.1l7-7.6V380h-4v-3.6l4-3.8V365h6v-8h8.3l4.6-4.5-7.7-7.5h10.6l4.2-4.5v-6l7-7v-6.2l9.3-9.3h6.1l5.6-5.7v-16.1l10-9.7V270h-7.4zM298 46h-8v-4h2.7l2.7 2.7 4.6-4.9V32h7v-4h-3v-5.6l9.7-9.4h5.5l2.5-2.8-4-4.2h-5.4l-3.4 3h-8.6l-6.3 6.5V10h-11.7l1.2-1h14.9l-5.3-5H282V0H262.8L259 4h-10l-1.8 1H240v6.5L235.4 7h-14.9l-3 3h-6l-6.7 7h4.8l2.6 2.4-2.9 2.6h-11.8l-3.2 3.2 11.9 12 3.4-3.2h11.5l8.9 7.9V53h3v-1.8l7.6 7.7-6.6 6.3V73h3.9l3.8 4-4.6 4.8 7 7.2h3.5l4.4 4h6V82.6l3-3.3v-5.1l4-4.2h5.9l7.1-7h8.6L298 51.6zM314 73.2l-3.9-4.2h-5.8l-2.8 3-2.1-2H295V76.3l3.9 4.7h7.6zM440.2 292.6l-5.2 5.1v8.1l-3 3.4v7.9l5.9 6 6.1-6.2v-11.7l6-6.3v-8.7l-3.7-3.7z"/><path d="M731.9 65H726v3.9l-3-3.4V60h-9.1l-4.6-5H698v6h-5.6l-4.8-5H677l-2.6 2.8-5-4.8H652v-8h-3.8l-3 2.9-4.8-4.9H631v6h-12.1l-5.9 6-6.3-6.1 3-3.1-6.7-6.7h-7v6h-3.7l-3.6-4h-11.3l-9.7 9.6-3.8-1.6L577 36.9V32h-15v-6h-6.3l-5.9 5.6-2.8 2.5-3.8-4.1h-8.5l-6 6H521l-5.8 6v9.1l-3 2.9v-6.2l-3.6-3.7H505l-3.5 3.2 2.6 2.8v5.5l-3-3.8V45l-5 4.5v15.7l-4.2 3.8h-3l5.2-5.1V47h-6.7l-4.3 4.6v10.5l-7.3-7.1h-11.2l4.3 4h-20.5l-7.7 7.7-4.7-4.4V67h-6.2l-6 6.2-4.6 4.9-3.2-3.2V69h-4l3.1-3.1 4.1 4.1h3.8l5.1-4.8-6.5-6.2H412l-2.9-3h-4.6l-2.6-3h-11.3l-4.4 5h-4.8L370 69.1V75h-5v5h-4.2l-5.7 5.8 3.1 3L354 93v5h7.9l3.6-3.5 5 5 3.4 3.4 4-4v-3.2l3.7-3.6 2.1-2-2.8-2.8v-6.9l6.1-5.9 1.9-1.7h8.1l-2.2 2.1-7.8 7.6v6.3h3v3.9l3.4-3.9h10.3l-3.8 4H393v6h-6v8h-3v2.8l-3.2-3.1-2.8 2.5h-4.4l-5.2-5H366v-5.1l-3 3.1v9.8l-2.1 1.2H352v5.8l-2.5 2.8-5.1 5.4h-3.2l-2.7 2H335v3h2.8l4.2 3.5v6.7l-2.6 1.8h-4l-2.4-2h-7l-3.8 4h3.7v4.2l-4 3.8v3.7l4.3 4.3h3.7v2.3l2.8-3.3h5.7l3.5-2.9v-5l6-6.2V142h5.1l1.9 2 3.2-3h4.6l4.3 3.6v3.4h2.4l6.6 5.9v6.7l3-3.4V154h3v-1.7l-4.1-2.7-8.9-9v-4.1l3.1 2.9 2.9 2.7h6v4.6l3 2.8v5.6h3v3.9l3 3.1v-8.2l4.7-3.8h8.3v-6l5-5.7V135h4v3.8l2.8 3 2.8-2.8h4.8l4.2 4.1 4.3 3.2-3.6 3.6H420l-1.6-2h-7.3l-6.1 6h-6v3.3l7.6 7.6 3-2.8H420v5.6l-8 7.4h-4.6l-2.2 2h-12.6l-5.2-5H384v8.1l-3.1-3.1h-3.5l-5.2-5H365v-4.2l3.1-3.1-2.9-2.8h-20.9l-4.8 5h-9.4L322 174V185.9h-4l-10 10v6.3l2 2.4v11.7l-4.7 5.1 12.7 12.1v5.5l6.5 7h16.1l5.9-6h6.4v6h12v6.8l-4.9 4.9 9.9 9.7v20.7l-3 2.7v9.9l10 9.3v12.6l3 3.6v7.5l4 3.6-2 2.4v4.4h7.4l2.7-3h5.4l16.7-16.3-2.2-2.3V319h6v-9.6L414 306l6-6h5l2.9-3.4v-14.1l-3-2.9v-15.2l19-18.5v-6.2l7-6.6v-7h-11.1l-3.3 3H434v-2.8L424 216v-4.2l-3-3V202l-4-3.7V184h2v8.2l6 6.6v7.2h4.1l5.9 5.9V224h6.7l8.5-9h5.7l11.1-10.7V196h-5.6l-3.4-3.7-4 3.7h-6v-7h-5v-8h3.8l8 8h8.7l6.3 6H481l8.7 8.8 3.3-3.4v16.4l4 4.2v10.8l6.2 5.8 9.8-9.4v-8.7l7-6.9v-6.1l7.9-7.8 10.1 10v9.4l3.2-3.1 4.8 4.7v14.2l6 6.1v4.9l10 9.9v-3.7l-4-3.9v-7.5l-8-7.5v-9.7l9.8 9.7 6.2-6.2v-10.7l-7.3-7.4 5.7-5.6 4.6 4.5V201l5.6-5h7l14.4-14.4v-11.7l-5.9-5.8 3.4-3.4-2.8-2.7h-4.4l-4.4-4h7.3l4.9-5.1v8.4l3.1-3.3h2.9v5h3v7.8l2.2 2.5 4.8-5.1V156h-6v-6.3l9.3-8.7h6.2l14.5-14.8v-15.8l-2.5-2.9-2.6 2.5h-7.4l15.5-15h12l4.9-4.4V94h7.1l3.6-3.6L673 82h5v6.1l-8.5 8.5-6.5 6.4v16h4l9-9.2v-5.1l2-2.1v-6.8l7.1-6.8h10.7l8.3-8h8l-6.4-7H717v-5.4l6.4 6.4h5.4l6.9-6.5-3.8-3.5zM459 150h-3v13h-6.7l-3.3-3.7V153l-5-4.8v-10l11-7.2v9.3l7 6.2v3.5z"/><path d="M617.7 163l-4.7 4.6v4.6l6.1-6.1 2.9 2.9h4v-3h5.4l3.6-4.1V156h2v-4.3l-6-4.9v8.5l-7.2 7.7z"/><path d="M637.5 139l-3.5-5.6v6.9l-3 2.8v3.7l2.8-2.8 4.1 4.1 6.1-6.1-3-3zM658 312.2l-11-10.1v-6.8l-4-4v-4.8l-4-4.2v11.4l-4.5 4.7-5.5-5.7V286h-12.6l-6.7 6.8-3.4-3-13.1 13.2h-4.7l-8.5 9.2v9.8h-2.8l8.8 8v8.6l-5 4.7v4.7h10.7l10.8-11h9.4l2.7-2h5.8l6.8 6.5 2.8-3v5.5l4 4.1v5.9h11.8l2.2 2.4 6-6.1v-6.5l9-8.7v-13.6l-5-5.5zM646.2 362l-.1-3H643v4.4l3.2 6.6h4l5.8-5.7v-5.2l-2.9 2.9zM699 362h-4v3h-2.7l-6.6 6.4 5.3 5.4 5-5.2V368h2.6l5.4-5.4-5-5.2zM707.8 351.2l-2.8-2.7v-2.6l-4.9-5-1.6 1.5 3.5 3.5v6.7l-1.6 2.2 3.6 2.2v4h2.9l1.1-1.8V355h3v-5h-1.7zM593 196.2l3-3-4-2.8-4 3.7v4.9h5zM599.1 281l4.9-4.9V273h-2.4l-4.6 5.1v2.9zM650 268.2v2.8h5.2l3.8-4.1v-4.3l-3.8-3.8-2.3 2.3 3.4 3.4-2.9 3.1z"/></g></svg>
